<svg width="24" height="24" viewBox="0 0 24 24" fill="none" xmlns="http://www.w3.org/2000/svg">
<g clip-path="url(#clip0)">
<path d="M22.1032 5.53685C21.209 4.13649 19.2863 3.55476 16.6955 3.88865C16.604 3.89938 16.507 3.91558 16.4155 3.92631C16.3778 3.84026 16.3402 3.754 16.297 3.66795C15.1822 1.30337 13.6579 0 11.999 0C10.34 0 8.81049 1.30337 7.70089 3.66795C7.66323 3.754 7.6201 3.84026 7.58244 3.92631C7.48545 3.91032 7.39393 3.89938 7.30241 3.88865C4.7064 3.54929 2.7889 4.13649 1.89474 5.53685C1.00079 6.93721 1.27535 8.92456 2.66498 11.1328C2.84823 11.4238 3.04747 11.7145 3.26291 12C3.04747 12.2908 2.84823 12.5763 2.66498 12.8671C1.27535 15.0753 1.00079 17.0681 1.89474 18.4632C2.62185 19.605 4.03315 20.203 5.93424 20.203C6.38995 20.2004 6.84502 20.1699 7.29694 20.1112C7.38846 20.1005 7.48545 20.0843 7.57697 20.0736C7.61484 20.1598 7.6525 20.2459 7.69563 20.3321C8.81049 22.6965 10.3348 24.0001 11.9935 24.0001C13.6524 24.0001 15.1822 22.6965 16.2916 20.3321C16.3292 20.2459 16.3723 20.1598 16.41 20.0736C16.507 20.0898 16.5985 20.1005 16.6902 20.1112C17.1417 20.1725 17.597 20.203 18.0527 20.203C19.954 20.203 21.3651 19.605 22.0922 18.4632C22.9864 17.0629 22.7116 15.0753 21.3222 12.8671C21.139 12.5763 20.9397 12.2855 20.7243 12C20.9397 11.7091 21.139 11.4238 21.3222 11.1328C22.7278 8.9193 23.0026 6.93174 22.1032 5.53685V5.53685ZM8.67584 4.12576C9.58599 2.1868 10.7978 1.0772 11.999 1.0772C13.2001 1.0772 14.4119 2.1868 15.3221 4.12576C15.3227 4.12976 15.3246 4.13354 15.3275 4.13649C14.1834 4.41168 13.0675 4.79207 11.9935 5.27281C10.9207 4.78975 9.80437 4.40915 8.65964 4.13649C8.67037 4.13649 8.67037 4.13102 8.67584 4.12576V4.12576ZM16.8518 12C16.852 12.8618 16.8053 13.7231 16.7117 14.5799C16.0403 15.1216 15.3391 15.6251 14.6112 16.0879C13.7711 16.6274 12.8967 17.1115 11.9935 17.5369C11.0922 17.1081 10.2178 16.6242 9.37602 16.0879C8.64891 15.6238 7.94768 15.1203 7.27548 14.5799C7.08865 12.865 7.08865 11.1349 7.27548 9.42003C8.72717 8.25341 10.3108 7.261 11.9935 6.4632C12.895 6.89176 13.7692 7.37566 14.6112 7.91195C15.3383 8.37607 16.0395 8.87953 16.7117 9.42003C16.8053 10.2769 16.852 11.1381 16.8518 12V12ZM17.8804 10.4326C18.4079 10.9239 18.9044 11.4473 19.367 12C18.9044 12.5525 18.4079 13.076 17.8804 13.5672C17.9128 13.0503 17.929 12.5279 17.929 12C17.929 11.4722 17.9128 10.9498 17.8804 10.4326ZM16.4908 16.1096C16.3208 17.0421 16.074 17.9589 15.753 18.851C14.9164 18.6621 14.0955 18.41 13.2971 18.097C13.9324 17.7631 14.568 17.3968 15.1982 16.9983C15.64 16.7128 16.0709 16.4166 16.4908 16.1096V16.1096ZM10.7008 18.097C9.90389 18.414 9.08252 18.6663 8.24496 18.851C7.9239 17.9589 7.67711 17.0421 7.50712 16.1096C7.9218 16.4166 8.35268 16.7128 8.79976 16.9928C9.42988 17.3968 10.0655 17.7631 10.7008 18.097ZM6.11749 13.5672C5.59004 13.076 5.09373 12.5525 4.63087 12C5.09373 11.4473 5.59004 10.9239 6.11749 10.4326C6.08509 10.9498 6.06889 11.4722 6.06889 12C6.06889 12.5279 6.08509 13.0503 6.11749 13.5672ZM7.50712 7.89049C7.67711 6.95783 7.9239 6.04094 8.24496 5.1491C9.08147 5.33782 9.90263 5.58987 10.7008 5.90314C10.0655 6.23703 9.42988 6.60332 8.79976 7.0018C8.35794 7.2873 7.92706 7.58353 7.50712 7.89049ZM15.1929 7.0018C14.568 6.60332 13.9324 6.23156 13.2916 5.90314C14.0886 5.58608 14.9099 5.33382 15.7477 5.1491C16.0685 6.04094 16.3153 6.95783 16.4855 7.89049C16.0709 7.58353 15.64 7.2873 15.1929 7.0018ZM3.57534 10.5566C2.43334 8.74678 2.15331 7.12572 2.79963 6.11311C3.31677 5.30521 4.4371 4.86886 5.95044 4.86886C6.35565 4.87054 6.76044 4.89768 7.16229 4.94965H7.17302C6.7373 6.21662 6.43413 7.52525 6.26834 8.8545C5.43835 9.54689 4.66558 10.3053 3.95762 11.1221C3.82297 10.939 3.69379 10.7505 3.57534 10.5566ZM7.15703 19.045C6.75518 19.0971 6.35039 19.1241 5.94518 19.1258C4.43163 19.1258 3.3113 18.6949 2.79437 17.8815C2.14805 16.8689 2.42808 15.2478 3.56987 13.4381C3.68832 13.2496 3.81771 13.0556 3.95236 12.8671C4.66011 13.684 5.43288 14.4423 6.26287 15.1347C6.42887 16.4641 6.73204 17.7727 7.16776 19.0395C7.16776 19.045 7.16229 19.045 7.15703 19.045ZM15.3221 19.8743C14.4119 21.8133 13.2001 22.9229 11.999 22.9229C10.7978 22.9229 9.58599 21.8133 8.67584 19.8743C8.67521 19.8703 8.67331 19.8665 8.67037 19.8636C9.81447 19.5884 10.9304 19.208 12.0044 18.7271C13.0772 19.2103 14.1935 19.5909 15.3383 19.8636C15.3275 19.8636 15.3275 19.8689 15.3221 19.8743ZM20.4226 13.4435C21.5646 15.2531 21.8446 16.8744 21.1983 17.887C20.552 18.8994 18.9631 19.325 16.8409 19.045H16.8302C17.2659 17.778 17.5693 16.4694 17.735 15.1401C18.565 14.4477 19.3378 13.6893 20.0456 12.8725C20.1749 13.061 20.3041 13.2496 20.4226 13.4435V13.4435ZM17.7296 8.85997C17.5638 7.53051 17.2606 6.22188 16.8249 4.95512H16.8356C18.9576 4.68035 20.5465 5.1005 21.1928 6.11311C21.8391 7.12572 21.5591 8.74678 20.4173 10.5566C20.2989 10.7451 20.1695 10.939 20.0348 11.1276C19.3302 10.3093 18.5591 9.55089 17.7296 8.85997Z" fill="url(#paint0_linear)"/>
<path d="M11.999 9.86713C10.821 9.86713 9.86603 10.8221 9.86603 12.0001C9.86603 13.178 10.821 14.1328 11.999 14.1328C13.1769 14.1328 14.1319 13.178 14.1319 12.0001C14.1311 10.8223 13.1765 9.86797 11.999 9.86713ZM11.999 13.0556C11.416 13.0556 10.9432 12.5831 10.9432 12.0001C10.9432 11.4171 11.416 10.9443 11.999 10.9443C12.582 10.9443 13.0547 11.4171 13.0547 12.0001C13.0536 12.5826 12.5815 13.0547 11.999 13.0556Z" fill="url(#paint1_linear)"/>
</g>
<defs>
<linearGradient id="paint0_linear" x1="12.0006" y1="-0.926392" x2="12.0006" y2="25.1854" gradientUnits="userSpaceOnUse">
<stop stop-color="#00EFD1"/>
<stop offset="1" stop-color="#00ACEA"/>
</linearGradient>
<linearGradient id="paint1_linear" x1="11.999" y1="-0.926358" x2="11.999" y2="25.1854" gradientUnits="userSpaceOnUse">
<stop stop-color="#00EFD1"/>
<stop offset="1" stop-color="#00ACEA"/>
</linearGradient>
<clipPath id="clip0">
<rect width="24" height="24" fill="white"/>
</clipPath>
</defs>
</svg>

