<svg width="32" height="32" viewBox="0 0 32 32" fill="none" xmlns="http://www.w3.org/2000/svg">
<path d="M9.10185 15.8337C9.0359 15.7677 8.99113 15.6836 8.97327 15.592C8.95541 15.5004 8.96528 15.4056 9.00161 15.3197C9.02101 15.2738 9.48979 14.1833 10.5697 13.1466C11.5734 12.1832 13.314 11.0848 15.9062 11.3237L12.5016 16.171L9.40295 15.97C9.28936 15.9627 9.18233 15.9142 9.10185 15.8337V15.8337Z" fill="#FE6E63"/>
<path d="M16.1663 22.8982C16.0858 22.8177 16.0373 22.7106 16.03 22.5971L15.829 19.4984L20.6763 16.0938C20.9152 18.686 19.8168 20.4266 18.8534 21.4303C17.8168 22.5102 16.7263 22.979 16.6803 22.9984C16.5944 23.0348 16.4996 23.0446 16.408 23.0268C16.3164 23.0089 16.2322 22.9641 16.1663 22.8982V22.8982Z" fill="#FF326C"/>
<path d="M8.13734 23.8627C8.06567 23.7911 8.01917 23.6981 8.0048 23.5978C7.99043 23.4974 8.00896 23.3951 8.05763 23.3062C8.32095 22.8251 10.6572 18.5792 11.5837 17.6527L14.3473 20.4163C13.4208 21.3428 9.17492 23.6791 8.69383 23.9424C8.60493 23.9911 8.50264 24.0096 8.40231 23.9953C8.30198 23.9809 8.20901 23.9344 8.13734 23.8627V23.8627Z" fill="#FFE278"/>
<path d="M8.13745 23.8628C8.20912 23.9344 8.30208 23.9809 8.40239 23.9953C8.5027 24.0096 8.60496 23.9911 8.69385 23.9424C9.17493 23.6791 13.4208 21.3428 14.3473 20.4163L12.9656 19.0346L8.13745 23.8628Z" fill="#FFC178"/>
<path d="M10.7455 17.4897C10.6576 17.4018 10.6083 17.2826 10.6083 17.1583C10.6083 17.034 10.6576 16.9148 10.7455 16.8269L12.2005 15.3719C12.3836 15.1888 12.6803 15.1888 12.8634 15.3719L16.6281 19.1366C16.8111 19.3197 16.8111 19.6164 16.6281 19.7995L15.1793 21.2483C14.9964 21.4311 14.7001 21.4314 14.517 21.2488L10.7461 17.4902L10.7455 17.4897Z" fill="#3D444D"/>
<path d="M16.6281 19.1366L14.7458 17.2544L12.631 19.3691L14.5169 21.2489C14.7 21.4314 14.9964 21.4312 15.1792 21.2483L16.628 19.7995C16.8111 19.6164 16.8111 19.3197 16.6281 19.1366Z" fill="#23272B"/>
<path d="M22.1128 12.9078L19.0924 9.8874C19.0402 9.83524 19.0011 9.7715 18.9782 9.70137C18.9553 9.63124 18.9493 9.55669 18.9607 9.4838C18.972 9.41091 19.0004 9.34172 19.0436 9.28188C19.0867 9.22204 19.1434 9.17322 19.2089 9.1394C19.8646 8.80111 20.5646 8.47245 21.2896 8.16248C22.0349 7.84356 22.8538 8.00111 23.4263 8.57366L23.4264 8.57369C23.9989 9.14624 24.1564 9.96509 23.8374 10.7106C23.5264 11.438 23.1978 12.1381 22.8608 12.7913C22.827 12.8568 22.7782 12.9135 22.7183 12.9566C22.6585 12.9998 22.5893 13.0282 22.5164 13.0395C22.4435 13.0509 22.369 13.0449 22.2988 13.022C22.2287 12.9991 22.165 12.96 22.1128 12.9078V12.9078Z" fill="#FE6E63"/>
<path d="M23.8374 10.7105C24.1564 9.96509 23.999 9.14631 23.4265 8.57376L20.6027 11.3976L22.1129 12.9078C22.165 12.9599 22.2288 12.999 22.2989 13.0219C22.369 13.0448 22.4436 13.0508 22.5165 13.0395C22.5894 13.0281 22.6585 12.9997 22.7184 12.9566C22.7782 12.9134 22.827 12.8568 22.8609 12.7912C23.1978 12.1381 23.5264 11.438 23.8374 10.7105V10.7105Z" fill="#FF326C"/>
<path d="M16.5503 19.8623C17.645 19.158 18.7744 18.2348 19.8165 17.1928C20.8766 16.1326 21.9009 14.6518 22.8608 12.7913L22.8608 12.7912L19.2091 9.1394C17.3488 10.0988 15.8678 11.123 14.8073 12.1835C13.7652 13.2256 12.8421 14.355 12.1377 15.4497L16.5503 19.8623Z" fill="#ECF7FD"/>
<path d="M22.8609 12.7912L21.0349 10.9653L14.3441 17.6561L16.5503 19.8623C17.645 19.1579 18.7744 18.2348 19.8165 17.1928C20.8766 16.1326 21.9009 14.6517 22.8608 12.7913L22.8609 12.7912V12.7912Z" fill="#CDE2FF"/>
<path d="M17.3119 15.7126C17.8777 15.7126 18.3364 15.2539 18.3364 14.6881C18.3364 14.1223 17.8777 13.6637 17.3119 13.6637C16.7461 13.6637 16.2875 14.1223 16.2875 14.6881C16.2875 15.2539 16.7461 15.7126 17.3119 15.7126Z" fill="#78E3F5"/>
<path d="M18.0364 13.9638L16.5876 15.4126C16.9877 15.8126 17.6363 15.8125 18.0364 15.4125C18.4364 15.0124 18.4364 14.3638 18.0364 13.9638V13.9638Z" fill="#18C2FB"/>
<path d="M16.2561 15.7439C15.6739 15.1617 15.6739 14.2144 16.2561 13.6322C16.8383 13.0501 17.7856 13.0501 18.3678 13.6323C18.9499 14.2144 18.9499 15.1617 18.3678 15.7439C17.7856 16.3261 16.8383 16.3261 16.2561 15.7439ZM17.7049 14.2951C17.4882 14.0784 17.1357 14.0784 16.919 14.2951C16.7023 14.5118 16.7023 14.8644 16.919 15.0811C17.1357 15.2977 17.4883 15.2977 17.7049 15.0811C17.9216 14.8644 17.9216 14.5118 17.7049 14.2951V14.2951Z" fill="#3D444D"/>
<path d="M18.3679 13.6323L17.705 14.2952C17.9216 14.5119 17.9216 14.8644 17.7049 15.081C17.4883 15.2977 17.1358 15.2977 16.9191 15.0811L16.2562 15.744C16.8384 16.3261 17.7856 16.3261 18.3678 15.7439C18.95 15.1617 18.95 14.2145 18.3679 13.6323V13.6323Z" fill="#23272B"/>
</svg>
