<svg width="236" height="226" viewBox="0 0 236 226" fill="none" xmlns="http://www.w3.org/2000/svg">
<path d="M110.392 6.41643C112.786 -0.954054 123.214 -0.95408 125.608 6.41641L147.86 74.9007C148.931 78.1969 152.003 80.4286 155.469 80.4286H227.477C235.227 80.4286 238.449 90.3455 232.18 94.9007L173.924 137.226C171.12 139.264 169.946 142.874 171.017 146.171L193.269 214.655C195.664 222.025 187.228 228.154 180.959 223.599L122.702 181.274C119.898 179.236 116.102 179.236 113.298 181.274L55.0415 223.599C48.7718 228.154 40.3359 222.025 42.7307 214.655L64.9826 146.171C66.0536 142.874 64.8804 139.264 62.0765 137.226L3.82024 94.9008C-2.44947 90.3455 0.772712 80.4286 8.5225 80.4286H80.5312C83.997 80.4286 87.0686 78.1969 88.1396 74.9007L110.392 6.41643Z" fill="#F7B91C"/>
</svg>
